<svg xmlns:xlink="http://www.w3.org/1999/xlink" xmlns="http://www.w3.org/2000/svg" width="40" height="40"><path fill="none" stroke="#181818" d="M23.21 28.191v.342-.342zm2.136 0v.342-.342zm-10.681 0v.342-.342zm2.136 0v.342-.342zm2.136 0v.342-.342zm2.137 0v.342-.342zm10.41-22.116a2.424 2.424 0 012.42 2.417v22.982a2.458 2.458 0 01-2.452 2.45H8.546a2.45 2.45 0 01-2.45-2.45V8.536a2.468 2.468 0 012.461-2.46h22.927zm-10.41 22.116h2.135v-4.67 4.67h2.137v-4.67 4.67h1.633c.873 0 1.237-.62 1.237-1.382v-11.27a.516.516 0 00-.517-.516h-2.653a.4.4 0 01-.399-.4v-2.824c0-.427-.408-.78-.894-.78h-7.474c-.498 0-.895.353-.895.78v2.824a.4.4 0 01-.399.4h-2.65a.516.516 0 00-.517.516v11.27c0 .762.702 1.382 1.575 1.382h1.272v-4.67 4.67h2.136v-4.67 4.67h2.136v-4.67 4.67h2.137v-4.67 4.67z" opacity=".496"></path></svg>