<svg xmlns:xlink="http://www.w3.org/1999/xlink" xmlns="http://www.w3.org/2000/svg" width="40" height="40" viewBox="0 0 40 40"><path fill="none" fill-rule="evenodd" stroke="#181818" d="M17.49 31.792v-2.265m4.29 2.142v-2.873c0-.714-.579-1.294-1.293-1.294H17.49v-.068.068h-4.057m4.057 2.025v2.265h7.498c.606 0 1.096-.49 1.096-1.096V18.602c0-.605-.49-1.097-1.096-1.097h-3.207v3.57h-4.29v-3.57h4.29v3.57h4.303-4.303v.154-.153h-4.29v-3.57h-3.192c-.606 0-1.097.49-1.097 1.096v12.094c0 .606.491 1.096 1.097 1.096h3.191m0-10.716h-4.057 4.057v.153-.153h0zm4.36-16.433l8.926 8.886c.198.2.308.471.308.753v19.49c0 .889-.722 1.608-1.61 1.608H10.526c-.89 0-1.61-.719-1.61-1.608V6.252c0-.889.72-1.61 1.61-1.61H21.85zm-.07 12.862v-.144.144h0zm-4.29 0v-.144.144h0zm0 14.287v.097-.097h0zm0-4.29v2.025h0v-2.025h0z" opacity=".496"></path></svg>