<svg xmlns:xlink="http://www.w3.org/1999/xlink" xmlns="http://www.w3.org/2000/svg" width="40" height="40"><path fill="none" stroke="#181818" d="M13.932 31.792v-2.265m4.29 2.142v-2.873c0-.714-.58-1.294-1.294-1.294h-2.996v-.068.068H9.875m4.057 2.025v2.265h7.498c.605 0 1.096-.49 1.096-1.096V18.602c0-.605-.49-1.097-1.096-1.097h-3.208v3.57h-4.29v-3.57h4.29v3.57h4.304-4.304v.154-.153h-4.29v-3.57H10.74c-.606 0-1.097.49-1.097 1.096v12.094c0 .606.491 1.096 1.097 1.096h3.192m0-10.716H9.875h4.057v.153-.153h0zm8.21-16.433h3.997l8.91 8.886c.198.2.308.471.308.753v19.49c0 .889-.72 1.608-1.608 1.608h-3.727m-2.496-9.74v8.132a1.61 1.61 0 01-1.611 1.608H6.968c-.89 0-1.61-.719-1.61-1.608V6.252c0-.889.72-1.61 1.61-1.61H18.29l5.172 5.15h0m4.063 15.848V14.282c0-.282-.11-.552-.308-.753l-3.755-3.738h0m-5.241 7.714v-.144.144h0zm-4.29 0v-.144.144h0zm0 14.287v.097-.097h0zm0-4.29v2.025h0v-2.025h0z" opacity=".496"></path></svg>