<svg xmlns:xlink="http://www.w3.org/1999/xlink" xmlns="http://www.w3.org/2000/svg" width="40" height="40"><g fill="none" fill-rule="evenodd" opacity=".5"><path stroke="#181818" d="M8.929 21.42V8.698L20 5.566l11.071 3.132V21.42c0 9.187-11.07 13.014-11.07 13.014S8.93 30.607 8.93 21.42z" fill="none"></path><path fill="#181818" d="M20 11.61c.393 0 .712.319.712.712v.752a6.373 6.373 0 012.457.797l.442-.607a.713.713 0 011.153.837l-.443.609a6.393 6.393 0 011.52 2.09l.714-.233a.713.713 0 11.44 1.355l-.714.232c.086.417.13.85.13 1.292 0 .442-.044.874-.13 1.291l.714.233a.712.712 0 11-.44 1.355l-.714-.232a6.424 6.424 0 01-1.52 2.09l.443.607a.714.714 0 01-1.153.838l-.441-.608c-.74.422-1.571.7-2.457.798v.752a.713.713 0 01-1.425 0v-.752a6.362 6.362 0 01-2.458-.798l-.44.608a.713.713 0 01-1.154-.838l.443-.608a6.403 6.403 0 01-1.52-2.09l-.714.233a.713.713 0 01-.44-1.355l.714-.233a6.388 6.388 0 01-.13-1.291c0-.443.044-.875.13-1.292l-.714-.232a.713.713 0 11.44-1.355l.714.232a6.414 6.414 0 011.52-2.09l-.443-.608a.713.713 0 011.153-.837l.442.607c.74-.421 1.57-.7 2.456-.797v-.752c0-.393.32-.712.713-.712zm-.017 2.703a5.116 5.116 0 100 10.232 5.116 5.116 0 000-10.232zm-1.484 2.141l4.504 2.85-4.504 2.85v-5.7z"></path></g></svg>