<svg xmlns:xlink="http://www.w3.org/1999/xlink" xmlns="http://www.w3.org/2000/svg" width="40" height="40"><g fill="none" fill-rule="evenodd" opacity=".5"><path stroke="#181818" d="M25.163 31.468l.415.85c.404.702-.026 1.61-.836 1.61h-9.796c-.811 0-1.318-.908-.912-1.61l.513-.887h0M7.494 18.214c0-6.904 5.596-12.5 12.5-12.5 6.902 0 12.5 5.596 12.5 12.5 0 6.903-5.598 12.5-12.5 12.5-6.904 0-12.5-5.597-12.5-12.5zm6.792.066a5.423 5.423 0 1010.847 0 5.423 5.423 0 00-10.847 0zm3.928-11.454c0 .435.346.674.78.674h2.099c.435 0 .693-.239.693-.674h0" fill="none"></path><path fill="#181818" d="M17.143 18.318a2.602 2.602 0 115.205 0 2.602 2.602 0 11-5.205 0"></path></g></svg>