<svg xmlns:xlink="http://www.w3.org/1999/xlink" xmlns="http://www.w3.org/2000/svg" width="40" height="40"><g fill="none" fill-rule="evenodd" opacity=".5"><path fill="#181818" d="M31.457 14.86a1.784 1.784 0 11-3.568-.002 1.784 1.784 0 013.568.002m-22.852 0a1.783 1.783 0 113.565 0 1.783 1.783 0 01-3.565 0m11.3-.242a2.67 2.67 0 01-2.667-2.667 2.67 2.67 0 012.667-2.665c1.47 0 2.666 1.195 2.666 2.665s-1.196 2.667-2.666 2.667"></path><path stroke="#181818" d="M29.17 16.434c-.617 0-1.19.178-1.674.485m5.718 8.797v-6.154c0-1.728-1.358-3.128-3.086-3.128m-19.26 0c.616 0 1.19.178 1.674.485m-5.756 8.798v-6.155a3.124 3.124 0 013.124-3.128m6.876-1.445c-1.452.795-2.143 2.336-2.143 4.106v8.762m8.475-12.867c1.452.794 2.24 2.335 2.24 4.105v8.768M5.713 30.357h28.572" fill="none"></path></g></svg>