<svg xmlns:xlink="http://www.w3.org/1999/xlink" viewBox="0 0 56 56" fill="none" xmlns="http://www.w3.org/2000/svg" width="56"  height="56" ><path fill-rule="evenodd" clip-rule="evenodd" d="M11.0328 39.9844C2.98909 31.9407 2.98906 18.8983 11.0328 10.8535L10.3256 10.1465C1.89147 18.5817 1.89144 32.2572 10.3257 40.6915L11.0328 39.9844ZM45.9672 10.8535C54.0109 18.8983 54.0109 31.9407 45.9672 39.9844L46.6743 40.6915C55.1086 32.2572 55.1085 18.5817 46.6744 10.1465L45.9672 10.8535ZM15.18 33.8373C10.5301 29.1883 10.53 21.6502 15.18 17.0002L14.4729 16.2931C9.43242 21.3336 9.43236 29.5049 14.473 34.5444L15.18 33.8373ZM41.82 17.0002C46.47 21.6502 46.4699 29.1883 41.82 33.8373L42.527 34.5444C47.5676 29.5049 47.5676 21.3336 42.5271 16.2931L41.82 17.0002ZM19.4162 28.6906C17.528 26.8029 17.5279 23.7418 19.4162 21.8536L18.7091 21.1465C16.4303 23.4252 16.4303 27.1195 18.7091 29.3978L19.4162 28.6906ZM38.2909 29.3978C40.5697 27.1195 40.5697 23.4252 38.2909 21.1465L37.5838 21.8536C39.4721 23.7418 39.472 26.8029 37.5838 28.6906L38.2909 29.3978ZM28 29.2426L24.2574 25.5L28.5 21.2573L32.7426 25.5L29 29.2426V37V40V43V49.5H28V43V40V37V29.2426Z" fill="#181818"></path></svg>