<svg xmlns:xlink="http://www.w3.org/1999/xlink" xmlns="http://www.w3.org/2000/svg" fill="none" viewBox="0 0 56 56" width="56"  height="56" ><path fill="#181818" fill-rule="evenodd" d="M25 14.018a2.482 2.482 0 1 0 0 4.964 2.482 2.482 0 0 0 0-4.964ZM23.518 16.5a1.482 1.482 0 1 1 2.964 0 1.482 1.482 0 0 1-2.964 0ZM28 17v4h4v-4h-4Zm1 3v-2h2v2h-2ZM25 20.018a2.482 2.482 0 1 0 0 4.964 2.482 2.482 0 0 0 0-4.964ZM23.518 22.5a1.482 1.482 0 1 1 2.964 0 1.482 1.482 0 0 1-2.964 0ZM26 26v4h4v-4h-4Zm1 3v-2h2v2h-2ZM20.18 31.725a2.482 2.482 0 1 0 0 4.964 2.482 2.482 0 0 0 0-4.964Zm-1.483 2.482a1.482 1.482 0 1 1 2.964 0 1.482 1.482 0 0 1-2.964 0ZM20.18 37.716a2.482 2.482 0 1 0 0 4.964 2.482 2.482 0 0 0 0-4.964Zm-1.483 2.482a1.482 1.482 0 1 1 2.964 0 1.482 1.482 0 0 1-2.964 0ZM20.18 43.716a2.482 2.482 0 1 0 0 4.964 2.482 2.482 0 0 0 0-4.964Zm-1.483 2.482a1.482 1.482 0 1 1 2.964 0 1.482 1.482 0 0 1-2.964 0ZM26.5 45a1.5 1.5 0 0 0 0 3h2a1.5 1.5 0 1 0 0-3h-2Zm-.5 1.5a.5.5 0 0 1 .5-.5h2a.5.5 0 1 1 0 1h-2a.5.5 0 0 1-.5-.5Z" clip-rule="evenodd"></path><path fill="#181818" d="M28 42.216a.75.75 0 1 0-1.5 0 .75.75 0 0 0 1.5 0ZM28 40.216a.75.75 0 1 0-1.5 0 .75.75 0 0 0 1.5 0ZM28 38.18a.75.75 0 1 0-1.5 0 .75.75 0 0 0 1.5 0Z"></path><path fill="#181818" fill-rule="evenodd" d="M41.5 23H32v3h1.5a1.5 1.5 0 0 1 1.5 1.5v12a1.5 1.5 0 0 1-1.5 1.5H32v7.5a1.5 1.5 0 0 1-1.5 1.5H14.512a1.5 1.5 0 0 1-1.5-1.5v-.018l.318-26.739C13.427 13.573 20.08 7 28.25 7H41.5A1.5 1.5 0 0 1 43 8.5v13a1.5 1.5 0 0 1-1.5 1.5Zm-27.17-1.245C14.42 14.132 20.626 8 28.25 8H41.5a.5.5 0 0 1 .5.5v13a.5.5 0 0 1-.5.5H41v-6h-4v6h-6v5h2.5a.5.5 0 0 1 .5.5v12a.5.5 0 0 1-.5.5H31v8.5a.5.5 0 0 1-.5.5H14.512a.5.5 0 0 1-.5-.5v-.006l.318-26.74ZM40 17v5h-2v-5h2Z" clip-rule="evenodd"></path></svg>