<svg xmlns:xlink="http://www.w3.org/1999/xlink" xmlns="http://www.w3.org/2000/svg" viewBox="0 0 56 56" width="56"  height="56" ><g fill="none" fill-rule="evenodd"><path stroke="#181818" d="M24.625 35.883c1.374 6.866 6.386 8.418 10.93 7.948 4.76-3.63 7.844-9.342 7.844-15.79 0-3.864-1.122-7.458-3.03-10.51a14.845 14.845 0 01-8.66 9.406 14.742 14.742 0 002.3-7.906c0-5.246-3.316-9.87-6.554-12.886-.038 13.968-13.204 12.738-14.832 23.868-.992 6.772 4.204 12.04 9.94 13.496-.632-1.424-1.386-4.95 2.062-7.626z" fill="none"></path><path fill="#181818" d="M23 48h10.006a1 1 0 011 1v.024a1 1 0 01-1 1H23a1 1 0 01-1-1V49a1 1 0 011-1z"></path></g></svg>