<svg xmlns:xlink="http://www.w3.org/1999/xlink" xmlns="http://www.w3.org/2000/svg" viewBox="0 0 56 56" width="56"  height="56" ><g fill="none" fill-rule="evenodd"><path fill="#181818" d="M23 48h10.006a1 1 0 011 1v.024a1 1 0 01-1 1H23a1 1 0 01-1-1V49a1 1 0 011-1z"></path><path stroke="#181818" d="M13.5 30.198C13.5 19.526 27.79 5 27.79 5s14.29 14.674 14.29 25.198c0 7.53-6.398 13.636-14.29 13.636-7.892 0-14.29-6.106-14.29-13.636zm5.018-.005c0 4.788 4.15 8.668 9.272 8.668h0" fill="none"></path></g></svg>