<svg xmlns:xlink="http://www.w3.org/1999/xlink" viewBox="0 0 56 56" fill="none" xmlns="http://www.w3.org/2000/svg" width="56"  height="56" ><path fill-rule="evenodd" clip-rule="evenodd" d="M33.0073 27.0145H23.0073C21.3503 27.0145 20.0073 28.3585 20.0073 30.0145C20.0073 31.6715 21.3503 33.0145 23.0073 33.0145H33.0073C34.6643 33.0145 36.0073 31.6715 36.0073 30.0145C36.0073 28.3585 34.6643 27.0145 33.0073 27.0145ZM35.0073 30.0145C35.0073 31.1185 34.1113 32.0145 33.0073 32.0145C31.9033 32.0145 31.0073 31.1185 31.0073 30.0145C31.0073 28.9105 31.9033 28.0145 33.0073 28.0145C34.1113 28.0145 35.0073 28.9105 35.0073 30.0145Z" fill="#181818"></path> <path fill-rule="evenodd" clip-rule="evenodd" d="M28.0073 5.36035L4.78027 28.0595H12.0007L12.0073 45.5595C12.0073 45.7348 12.0373 45.9032 12.0925 46.0595H7.50728V47.0595H48.5073V46.0595H43.9221C43.9773 45.9031 44.0073 45.7348 44.0073 45.5595V28.0595H51.2343L28.0073 5.36035ZM12.0003 27.0001L12.0003 27.0595H7.23428L28.0073 6.75859L48.7803 27.0595H43.0073V45.5595C43.0073 45.8363 42.7841 46.0595 42.5073 46.0595H13.5073C13.2311 46.0595 13.0073 45.836 13.0073 45.5595L13.0003 26.9997L12.0003 27.0001Z" fill="#181818"></path></svg>