<svg xmlns:xlink="http://www.w3.org/1999/xlink" xmlns="http://www.w3.org/2000/svg" viewBox="0 0 56 56" width="56"  height="56" ><g fill="none" fill-rule="evenodd"><path stroke="#181818" d="M28.5 3V.003 3zm0 53v-2.998V56zm24.541-28.5h2.956-2.956zm-53 0h2.956H.04zm50.414-20l2.53-2.5-2.53 2.5zm-43.47 0L4.455 5l2.53 2.5zm46 43l-2.53-2.5 2.53 2.5zm-46-2.5l-2.53 2.5 2.53-2.5zm40.782-27.807c.036.584.066 1.168.093 1.752a135.253 135.253 0 01.134 7.427c-.01.861-.024 1.722-.053 2.582-.037 1.07-.085 2.138-.141 3.206a77.823 77.823 0 01-.163 2.465c-.114 1.363-.274 2.722-.667 4.04-.413 1.384-1.06 2.631-2.146 3.615-.696.63-1.495 1.088-2.37 1.421-1.034.397-2.111.62-3.207.764-1.061.141-2.127.216-3.195.28-.896.055-1.792.101-2.688.141-.874.038-1.748.058-2.622.082-1.713.047-3.426.033-5.138.012-1.116-.014-2.232-.06-3.347-.11a124.57 124.57 0 01-2.925-.162c-1.401-.093-2.801-.212-4.175-.523-.957-.218-1.882-.527-2.74-1.013a6.758 6.758 0 01-2.742-2.878c-.563-1.107-.866-2.294-1.061-3.513-.16-.992-.243-1.993-.311-2.996a120.758 120.758 0 01-.17-3.009c-.033-.795-.057-1.59-.083-2.385a120.897 120.897 0 01.014-7.553c.028-.847.06-1.693.11-2.539.06-1.053.117-2.108.21-3.16.107-1.188.255-2.368.564-3.522.302-1.125.752-2.183 1.478-3.105.86-1.092 1.982-1.815 3.277-2.286 1.113-.406 2.268-.616 3.439-.755a51.658 51.658 0 013.17-.253c.98-.054 1.96-.102 2.94-.14a87.83 87.83 0 014.619-.072c.824 0 1.648-.014 2.47.003 1.178.024 2.354.061 3.53.11.948.04 1.894.102 2.84.163.708.046 1.414.101 2.118.184l.418.068c1.096.145 2.173.367 3.208.763.874.334 1.673.792 2.369 1.422 1.087.984 1.733 2.231 2.146 3.615.393 1.318.553 2.676.667 4.04.069.82.087.997.13 1.82zM35.432 46.006l-.856-1.498a2 2 0 00-1.737-1.008h-8.678c-.718 0-1.38.385-1.737 1.008l-.85 1.487h0" fill="none"></path><path fill="#181818" d="M36.964 39a.965.965 0 010 1.928.965.965 0 010-1.928zm-18 0a.965.965 0 010 1.928.965.965 0 010-1.928zm9-4a.965.965 0 010 1.928.965.965 0 010-1.928zm-6 0a.965.965 0 010 1.928.965.965 0 010-1.928zm-6 0a.965.965 0 010 1.928.965.965 0 010-1.928zm18 0a.965.965 0 010 1.928.965.965 0 010-1.928zm6 0a.965.965 0 010 1.928.965.965 0 010-1.928zm-3-4a.965.965 0 010 1.928.965.965 0 010-1.928zm6 0l.964.964a.963.963 0 11-.964-.964zm-18 0a.965.965 0 010 1.928.965.965 0 010-1.928zm-6 0a.965.965 0 010 1.928.965.965 0 010-1.928zm-6 0a.965.965 0 010 1.928.965.965 0 010-1.928zm18 0a.965.965 0 010 1.928.965.965 0 010-1.928zm3-4a.965.965 0 010 1.928.965.965 0 010-1.928zm-12 0a.965.965 0 010 1.928.965.965 0 010-1.928zm18 0a.965.965 0 010 1.928.965.965 0 010-1.928zm-12 0a.965.965 0 010 1.928.965.965 0 010-1.928zm-12 0a.965.965 0 010 1.928.965.965 0 010-1.928zm9-4a.965.965 0 010 1.928.965.965 0 010-1.928zm-6 0a.965.965 0 010 1.928.965.965 0 010-1.928zm-6 0a.965.965 0 010 1.928.965.965 0 010-1.928zm18 0a.965.965 0 010 1.928.965.965 0 010-1.928zm6 0a.965.965 0 010 1.928.965.965 0 010-1.928zm6 0a.965.965 0 010 1.928.965.965 0 010-1.928zm-9-4a.965.965 0 010 1.928.965.965 0 010-1.928zm6 0a.965.965 0 010 1.928.965.965 0 010-1.928zm-12 0a.965.965 0 010 1.928.965.965 0 010-1.928zm-6 0a.965.965 0 010 1.928.965.965 0 010-1.928zm-6 0a.965.965 0 010 1.928.965.965 0 010-1.928zm15-4a.965.965 0 010 1.928.965.965 0 010-1.928zm6 0a.965.965 0 010 1.928.965.965 0 010-1.928zm-12 0a.965.965 0 010 1.928.965.965 0 010-1.928zm-6 0a.965.965 0 010 1.928.965.965 0 010-1.928z"></path></g></svg>