<svg xmlns:xlink="http://www.w3.org/1999/xlink" xmlns="http://www.w3.org/2000/svg" viewBox="0 0 56 56" width="56"  height="56" ><g fill="none" fill-rule="evenodd"><path d="M20.5 35.756V15.67c0-1.477 1.022-2.813 2.5-2.813 1.48 0 2.5 1.212 2.5 2.925v14.73m.24-8.438a2.677 2.677 0 014.806 1.622v6.582m0-3.905a2.676 2.676 0 115.352 0v3.905m0 0v-1.23a2.675 2.675 0 012.677-2.675c1.479 0 2.925 1.197 2.925 2.675v6.517m-19.16 12.26c-4.644-2.208-7.85-6.94-7.85-12.422v-.964a2.676 2.676 0 015.352 0" stroke="#181818" stroke-linecap="round" fill="none"></path><path fill="#181818" fill-rule="nonzero" d="M23.062 6a6.062 6.062 0 014.608 10.002 4.85 4.85 0 10-9.216 0A6.062 6.062 0 0123.062 6z"></path></g></svg>