<svg xmlns:xlink="http://www.w3.org/1999/xlink" xmlns="http://www.w3.org/2000/svg" viewBox="0 0 56 56" width="56"  height="56" ><g fill="none" fill-rule="evenodd"><path stroke="#181818" d="M28.269 47.826c-3.658.022-6.94-.377-10.174-1.16-1.692-.408-3.294-1.035-4.708-2.083-1.67-1.236-2.79-2.872-3.51-4.8-.735-1.961-1.086-4.013-1.383-6.074a39.852 39.852 0 01-.37-6.861c.1-3.406.516-6.769 1.524-10.035.556-1.804 1.464-3.412 2.857-4.719 1.109-1.04 2.403-1.768 3.825-2.282 1.777-.642 3.626-.974 5.484-1.258 2.615-.4 5.248-.53 7.887-.414 3.126.136 6.22.536 9.226 1.44 2.96.892 5.264 2.61 6.65 5.437.726 1.482 1.13 3.066 1.45 4.675.652 3.285.915 6.603.779 9.947-.126 3.076-.524 6.118-1.381 9.084-.625 2.16-1.678 4.066-3.44 5.525-1.38 1.145-2.983 1.845-4.699 2.302-2.31.614-4.663.968-7.045 1.158a34.46 34.46 0 01-2.972.118zm1.804-34.043v.958a2.043 2.043 0 11-4.088 0v-.958h0m0 28.554v-.96a2.044 2.044 0 014.088.001v.959m-2.044 2.044c9.031 0 16.352-7.322 16.352-16.353 0-9.031-7.321-16.353-16.352-16.353-9.032 0-16.353 7.322-16.353 16.353 0 9.031 7.321 16.353 16.353 16.353z" fill="none"></path><path fill="#181818" d="M36.205 25.473a2.555 2.555 0 110 5.11 2.555 2.555 0 010-5.11zm-16.097 0a2.555 2.555 0 110 5.11 2.555 2.555 0 010-5.11z"></path></g></svg>