<svg xmlns:xlink="http://www.w3.org/1999/xlink" viewBox="0 0 56 56" fill="none" xmlns="http://www.w3.org/2000/svg" width="56"  height="56" ><path fill-rule="evenodd" clip-rule="evenodd" d="M44.3354 12.4127C45.5462 13.6791 43.709 15.5161 42.4426 14.3054C41.2318 13.0389 43.069 11.2019 44.3354 12.4127ZM45.0487 11.7117C47.0613 13.7962 44.3058 16.7867 42.1309 15.3342L37.8225 19.6426L37.1154 18.9355L41.4218 14.6291C39.9505 12.4524 42.9479 9.68298 45.0363 11.6993L45.0426 11.7054L45.0487 11.7117ZM13.3054 14.3054C12.039 15.5161 10.2018 13.6791 11.4126 12.4126C12.679 11.2019 14.5162 13.0389 13.3054 14.3054ZM10.6993 11.7117C8.68488 13.7981 11.4472 16.7922 13.6231 15.3302L17.9354 19.6426L18.6425 18.9355L14.3302 14.6231C15.792 12.4473 12.7981 9.68483 10.7117 11.6993L10.7054 11.7054L10.6993 11.7117ZM17.9354 37.0555L13.6231 41.3678C11.4472 39.9059 8.68488 42.9 10.6993 44.9863L10.7049 44.9921L10.7107 44.9977C11.2398 45.5116 11.8599 45.7236 12.4631 45.6852C13.0547 45.6475 13.5938 45.3718 13.991 44.9754C14.3881 44.579 14.665 44.0403 14.7037 43.4482C14.734 42.9851 14.6167 42.5117 14.3288 42.0763L18.6425 37.7626L17.9354 37.0555ZM11.4131 44.2859C10.2013 43.0194 12.0388 41.1817 13.3054 42.3927C13.6273 42.7291 13.7259 43.0754 13.7058 43.383C13.6849 43.704 13.5311 44.0215 13.2845 44.2676C13.0379 44.5138 12.7201 44.6668 12.3995 44.6872C12.0923 44.7068 11.7472 44.6076 11.4131 44.2859ZM37.1154 37.7626L41.4218 42.0689C39.9505 44.2456 42.9479 47.0151 45.0363 44.9987L45.0426 44.9926L45.0487 44.9863C47.0613 42.9019 44.3058 39.9114 42.1309 41.3638L37.8225 37.0555L37.1154 37.7626ZM44.3354 44.2854C43.069 45.4961 41.2318 43.6591 42.4426 42.3926C43.709 41.1819 45.5462 43.0189 44.3354 44.2854ZM32.3258 19.8469L34.2116 21.2465V33.6656L32.5467 35.153H32.525H28.951H27.1143H23.5119L21.847 33.6656V21.2465L23.7327 19.8469H27.1143H28.951H32.3258Z" fill="#181818"></path></svg>