<svg xmlns:xlink="http://www.w3.org/1999/xlink" xmlns="http://www.w3.org/2000/svg" viewBox="0 0 96 97" width="96"  height="97" ><g fill="none" fill-rule="evenodd" stroke="#181818" stroke-width="1.5px"><path d="M65.82 8.577h-1.574a3.094 3.094 0 00-3.089 3.089v2.104c-1.337.492-2.301 1.771-2.301 3.266v17.056h25.24V23.39c0-.197-.02-.413-.06-.61 0-.02 0-.039-.02-.059 0-.02 0-.039-.02-.078a3.754 3.754 0 00-.373-1.023l-.177-.295v-.02a3.724 3.724 0 00-3.089-1.652h-2.006a3.69 3.69 0 00-2.636 1.101 3.957 3.957 0 00-.453.55v.02l-.177.296a3.754 3.754 0 00-.374 1.023c0 .039-.02.098-.02.137a3.23 3.23 0 00-.058.61v10.702H71.23V17.036c0-1.495-.964-2.774-2.302-3.266v-2.104c-.02-1.692-1.417-3.089-3.108-3.089zM91.197 35.37c0 .709-.57 1.28-1.279 1.28H54.311a1.276 1.276 0 01-1.278-1.28c0-.708.57-1.278 1.278-1.278h35.607c.708 0 1.279.57 1.279 1.278z" stroke="#181818" fill="none" stroke-width="1.5px"></path><path d="M95.21 62.4c-.04-.177-.079-.374-.138-.55a5.8 5.8 0 00-.197-.532c-.078-.177-.157-.334-.236-.492a5.863 5.863 0 00-.275-.472 3.619 3.619 0 00-.334-.433 5.669 5.669 0 00-4.387-2.065H11.74v-13.2h3.03v-2.774h-3.05V9.442c0-3.678 3.01-6.688 6.689-6.688 3.679 0 6.688 3.01 6.688 6.689v2.34l2.754.02v-2.36C27.852 4.23 23.623 0 18.41 0S8.967 4.23 8.967 9.443v48.393H6.803a5.64 5.64 0 00-4.387 2.066c-.118.137-.216.295-.334.432-.098.158-.197.315-.275.473-.08.157-.177.334-.237.491a5.899 5.899 0 00-.196.532 4.507 4.507 0 00-.138.55c-.059.276-.098.57-.118.846v15.325c0 9.62 7.83 17.43 17.43 17.43h59.35c9.62 0 17.43-7.83 17.43-17.43V63.245a5.84 5.84 0 00-.118-.846z" stroke="#181818" fill="none" stroke-width="1.5px"></path><path d="M15.821 40.703h3.132a1 1 0 011 1v3.132a1 1 0 01-1 1h-3.132a1 1 0 01-1-1v-3.132a1 1 0 011-1zm20.353-27.025a1.868 1.868 0 01-1.87 1.87H18.647a1.868 1.868 0 110-3.738h15.659c1.043 0 1.869.826 1.869 1.868zM95.5 66.5l-85.175.07L1 66.5z" stroke="#181818" fill="none" stroke-width="1.5px"></path><path stroke-linecap="square" d="M68.188 13.625h-6m21.907 10.938H75" stroke="#181818" fill="none" stroke-width="1.5px"></path></g></svg>