<svg xmlns:xlink="http://www.w3.org/1999/xlink" xmlns="http://www.w3.org/2000/svg" viewBox="0 0 96 96" width="96"  height="96" ><g fill="none" fill-rule="evenodd" stroke-width="1.5px"><path stroke="#231F20" d="M11 6c0 2.76-2.24 5-5 5S1 8.76 1 6s2.24-5 5-5 5 2.24 5 5zm83 0c0 2.76-2.24 5-5 5s-5-2.24-5-5 2.24-5 5-5 5 2.24 5 5zM11 89.195c0 2.76-2.24 5-5 5s-5-2.24-5-5 2.24-5 5-5 5 2.24 5 5zm83.195 0c0 2.76-2.24 5-5 5s-5-2.24-5-5 2.24-5 5-5 5 2.24 5 5z" fill="none" stroke-width="1.5px"></path><path stroke="#181818" stroke-linecap="square" d="M19 6.08h56.184M19 89.08h56.184M6.241 19.368v56.184M89.759 19.368v56.184" fill="none" stroke-width="1.5px"></path></g></svg>