<svg xmlns:xlink="http://www.w3.org/1999/xlink" xmlns="http://www.w3.org/2000/svg" viewBox="0 0 96 96" width="96"  height="96" ><g fill="none" fill-rule="evenodd" stroke-linecap="round" stroke-linejoin="round" stroke-width="1.5px" class="stroke" stroke="#181818"><path d="M87.867 90.777H8.133m6.379 0h66.976V14.233H14.512zM79.008 4.664H16.994l-8.86 9.569h79.734z" stroke="#181818" fill="none" stroke-width="1.5px"></path><path d="M24.08 74.83h9.568V62.074H24.08zm19.136 0h9.568V62.074h-9.568zm19.136 0h9.568V62.074h-9.568zM24.08 55.694h9.568V42.937H24.08zm19.136 0h9.568V42.937h-9.568zm0-19.136h9.568V23.801h-9.568zm19.136 19.136h9.568V42.937h-9.568zM24.08 36.558h9.568V23.801H24.08zm38.272 0h9.568V23.801h-9.568z" stroke="#181818" fill="none" stroke-width="1.5px"></path></g></svg>