<svg xmlns:xlink="http://www.w3.org/1999/xlink" xmlns="http://www.w3.org/2000/svg" viewBox="0 0 96 96" width="96"  height="96" ><g fill="none" fill-rule="evenodd" stroke-width="1.5px" class="stroke" stroke="#181818"><path d="M92.708 91.366H3.359M47.084 72.43H40.25L63.5 49.71l23.25 22.72h-6.87v18.936H47.12z" stroke="#181818" fill="none" stroke-width="1.5px"></path><path d="M59.625 79.772h7.75v11.625h-7.75zM23.782 90.978V63.21m-.001 0c11.236 0 20.344-9.109 20.344-20.344 0-11.236-9.108-20.344-20.344-20.344-11.235 0-20.343 9.108-20.343 20.344 0 11.235 9.108 20.343 20.343 20.343zm63.634-51.312c-.106-2.69-1.256-4.439-3.45-5.247-2.195-.809-4.173-.344-5.935 1.396-2.034-3.507-4.51-6.877-9.992-6.877-.395 0-.806.028-1.29.088-4.945.589-9 4.489-9.862 9.482l-.025.133-.122.028c-3.098.67-5.263 3.4-5.263 6.64 0 .098.008.195.014.276l.006.12c.002.018.002.033.006.05.226 3.564 3.133 6.35 6.632 6.35h29.281c3.509 0 6.365-2.914 6.365-6.496 0-3.585-2.856-5.942-6.365-5.942z" stroke="#181818" fill="none" stroke-width="1.5px"></path></g></svg>